<?xml version="1.0" standalone="no"?>
<!DOCTYPE svg PUBLIC "-//W3C//DTD SVG 20010904//EN"
 "http://www.w3.org/TR/2001/REC-SVG-20010904/DTD/svg10.dtd">
<svg version="1.0" xmlns="http://www.w3.org/2000/svg"
 width="512.000000pt" height="512.000000pt" viewBox="0 0 512.000000 512.000000"
 preserveAspectRatio="xMidYMid meet">
<metadata>
Created by potrace 1.11, written by Peter Selinger 2001-2013
</metadata>
<g transform="translate(0.000000,512.000000) scale(0.100000,-0.100000)"
fill="#000000" stroke="none">
<path d="M200 5111 c-81 -25 -146 -85 -179 -164 l-21 -50 2 -2351 3 -2351 22
-42 c32 -60 87 -109 147 -132 50 -20 90 -20 2383 -20 2327 -1 2332 -1 2387 19
69 26 129 86 155 153 20 51 20 77 18 2402 l-2 2350 -22 41 c-28 53 -74 99
-127 127 l-41 22 -2350 2 c-1292 1 -2361 -2 -2375 -6z"/>
</g>
</svg>
